<?xml version="1.0" encoding="UTF-8" standalone="no"?> <svg xmlns="http://www.w3.org/2000/svg" xmlns:xlink="http://www.w3.org/1999/xlink" viewBox="0 0 64 64"><defs><style>.cls-1{fill:url(#linear-gradient);}.cls-2{fill:url(#linear-gradient-2);}</style><linearGradient id="linear-gradient" x1="2.49" y1="32" x2="61.5" y2="32" gradientUnits="userSpaceOnUse"><stop offset="0" stop-color="#17a6d7"/><stop offset="1" stop-color="#9d31fe"/></linearGradient><linearGradient id="linear-gradient-2" x1="30.52" y1="21.03" x2="48.5" y2="21.03" xlink:href="#linear-gradient"/></defs><g id="Layer_9" data-name="Layer 9"><path class="cls-1" d="M61.06,50.64A24.77,24.77,0,0,1,53.5,28.7a21.51,21.51,0,0,0-20-21.42V4a1.5,1.5,0,0,0-3,0V7.28a21.52,21.52,0,0,0-20,21.42A24.65,24.65,0,0,1,3.64,49.94c-.65.61-1.47,1.36-1,2.34A1.51,1.51,0,0,0,4,53.2H26.63v2.91a5.39,5.39,0,1,0,10.77,0V53.2H60A1.51,1.51,0,0,0,61.06,50.64ZM34.4,56.11a2.39,2.39,0,0,1-4.77,0V53.2H34.4Zm1.5-5.91H7.46a27.54,27.54,0,0,0,6-21.61c1.14-24.4,35.87-24.38,37,0a27.54,27.54,0,0,0,6,21.61Z"/><path class="cls-2" d="M32,12.2a1.5,1.5,0,0,0,0,3A13.59,13.59,0,0,1,45.5,28.4,1.5,1.5,0,0,0,47,29.87a1.51,1.51,0,0,0,1.47-1.54A16.6,16.6,0,0,0,32,12.2Z"/></g></svg>